<svg version="1.0" xmlns="http://www.w3.org/2000/svg" viewBox="0 0 41 123"><path fill="#FA4A0C" d="M34.7 87H5.3c-.7 0-1.3.6-1.3 1.3v29.4c0 .7.6 1.3 1.3 1.3H21c0-4.1 0-8.3.1-12.4h-4.2v-4.8h4.2v-3.6c0-4.1 2.5-6.4 6.2-6.4 1.8 0 3.3.1 3.7.2v4.3h-2.6c-2 0-2.4.9-2.4 2.3v3.1h4.8l-.6 4.8H26c0 4.1 0 8.3-.1 12.4h8.7c.7 0 1.3-.6 1.3-1.3V88.3c.1-.7-.5-1.3-1.2-1.3z"/><path fill="#252B42" d="M34.7 5H5.3C4.6 5 4 5.6 4 6.3v29.4c0 .7.6 1.3 1.3 1.3H21c0-4.1 0-8.3.1-12.4h-4.2v-4.8h4.2v-3.6c0-4.1 2.5-6.4 6.2-6.4 1.8 0 3.3.1 3.7.2v4.3h-2.6c-2 0-2.4.9-2.4 2.3v3.1h4.8l-.6 4.8H26c0 4.1 0 8.3-.1 12.4h8.7c.7 0 1.3-.6 1.3-1.3V6.3c.1-.7-.5-1.3-1.2-1.3z"/></svg>