<svg version="1.0" xmlns="http://www.w3.org/2000/svg" viewBox="0 0 41 123"><path fill="#252B42" d="M35.7 5H5.3C4.6 5 4 5.6 4 6.3v29.4c0 .7.6 1.3 1.3 1.3h30.4c.7 0 1.3-.6 1.3-1.3V6.3c0-.7-.6-1.3-1.3-1.3zM13.8 32.3H8.9V17h4.9v15.3zm-2.5-17.4c-.6 0-1.1-.2-1.6-.5s-.8-.7-1-1.2c-.2-.5-.3-1.1-.2-1.6.1-.5.4-1 .8-1.4.4-.4.9-.6 1.5-.8.6-.1 1.1-.1 1.6.2.5.2 1 .6 1.3 1 .3.5.5 1 .5 1.5 0 1.6-1.3 2.8-2.9 2.8zm20.8 17.4h-4.9v-7.4c0-1.8 0-4-2.5-4s-2.9 1.9-2.9 3.9v7.6h-4.9V17h4.7v2.1h.1c.7-1.2 2.2-2.5 4.6-2.5 5 0 5.9 3.2 5.9 7.3v8.4z"/><path fill="#FA4A0C" d="M35.7 87H5.3c-.7 0-1.3.6-1.3 1.3v29.4c0 .7.6 1.3 1.3 1.3h30.4c.7 0 1.3-.6 1.3-1.3V88.3c0-.7-.6-1.3-1.3-1.3zm-21.9 27.3H8.9V99h4.9v15.3zm-2.5-17.4c-.6 0-1.1-.2-1.6-.5s-.8-.7-1-1.2c-.2-.5-.3-1.1-.2-1.6.1-.5.4-1 .8-1.4.4-.4.9-.6 1.5-.8.6-.1 1.1-.1 1.6.2.5.2 1 .6 1.3 1 .3.5.5 1 .5 1.5 0 1.6-1.3 2.8-2.9 2.8zm20.8 17.4h-4.9v-7.4c0-1.8 0-4-2.5-4s-2.9 1.9-2.9 3.9v7.6h-4.9V99h4.7v2.1h.1c.7-1.2 2.2-2.5 4.6-2.5 5 0 5.9 3.2 5.9 7.3v8.4z"/></svg>