<svg version="1.0" xmlns="http://www.w3.org/2000/svg" viewBox="0 0 41 123"><path fill="#FA4A0C" d="M37 92.2c-1.2.5-2.5.9-3.9 1.1 1.4-.8 2.5-2.2 3-3.8-1.3.8-2.8 1.4-4.3 1.6-.6-.7-1.4-1.2-2.2-1.6-.9-.4-1.8-.6-2.7-.6-3.7 0-6.8 3.1-6.8 6.8 0 .5.1 1.1.2 1.6-5.6-.3-10.6-3-13.9-7.1-.6 1-.9 2.2-.9 3.4 0 2.4 1.2 4.4 3 5.7-1.1 0-2.1-.3-3.1-.9v.1c0 3.3 2.3 6.1 5.4 6.7-.6.2-1.2.2-1.8.2-.4 0-.9 0-1.3-.1.9 2.7 3.4 4.7 6.3 4.7-2.3 1.8-5.2 2.9-8.4 2.9-.6 0-1.1 0-1.6-.1 3 1.9 6.6 3.1 10.4 3.1 12.4 0 19.2-10.4 19.2-19.4v-.9c1.3-.8 2.5-2 3.4-3.4z"/><path fill="#252B42" d="M37 10.2c-1.2.5-2.5.9-3.9 1.1 1.4-.8 2.5-2.2 3-3.8-1.3.8-2.8 1.4-4.3 1.6-.6-.7-1.4-1.2-2.2-1.6-.9-.3-1.8-.5-2.8-.5-3.7 0-6.8 3.1-6.8 6.8 0 .5.1 1.1.2 1.6-5.6-.3-10.6-3-13.9-7.1-.6 1-.9 2.2-.9 3.4 0 2.4 1.2 4.4 3 5.7-1.1 0-2.1-.3-3.1-.9v.1c0 3.3 2.3 6.1 5.4 6.7-.6.2-1.2.2-1.8.2-.4 0-.9 0-1.3-.1.9 2.7 3.4 4.7 6.3 4.7-2.2 1.8-5.1 2.9-8.3 2.9-.6 0-1.1 0-1.6-.1 3 1.9 6.6 3.1 10.4 3.1 12.4 0 19.2-10.4 19.2-19.4v-.9c1.3-.9 2.5-2.1 3.4-3.5z"/></svg>